# Blender 4.3.2
# www.blender.org
mtllib evaluation_maze3.mtl
o Plane.261
v 0.899258 0.000000 2.782249
v 0.899258 0.000000 2.532249
v 0.889258 0.000000 2.782249
v 0.889258 0.000000 2.532249
v 0.899258 0.100000 2.782249
v 0.899258 0.100000 2.532249
v 0.889258 0.100000 2.782249
v 0.889258 0.100000 2.532249
v 0.126284 -0.000000 2.262811
v 0.126284 -0.000000 2.012811
v 0.116284 -0.000000 2.262811
v 0.116284 -0.000000 2.012811
v 0.126284 0.100000 2.262811
v 0.126284 0.100000 2.012811
v 0.116284 0.100000 2.262811
v 0.116284 0.100000 2.012811
v 0.390626 -0.000000 2.782249
v 0.390626 -0.000000 2.532249
v 0.380626 -0.000000 2.782249
v 0.380626 -0.000000 2.532249
v 0.390626 0.100000 2.782249
v 0.390626 0.100000 2.532249
v 0.380626 0.100000 2.782249
v 0.380626 0.100000 2.532249
v 0.390626 -0.000000 2.528170
v 0.390626 -0.000000 2.278170
v 0.380626 -0.000000 2.528170
v 0.380626 -0.000000 2.278170
v 0.390626 0.100000 2.528170
v 0.390626 0.100000 2.278170
v 0.380626 0.100000 2.528170
v 0.380626 0.100000 2.278170
v 0.634915 -0.000000 2.782249
v 0.634915 -0.000000 2.532249
v 0.624915 -0.000000 2.782249
v 0.624915 -0.000000 2.532249
v 0.634915 0.100000 2.782249
v 0.634915 0.100000 2.532249
v 0.624915 0.100000 2.782249
v 0.624915 0.100000 2.532249
v 0.634915 -0.000000 2.274663
v 0.634915 -0.000000 2.024663
v 0.624915 -0.000000 2.274663
v 0.624915 -0.000000 2.024663
v 0.634915 0.100000 2.274663
v 0.634915 0.100000 2.024663
v 0.624915 0.100000 2.274663
v 0.624915 0.100000 2.024663
v 0.899258 -0.000000 2.528170
v 0.899258 -0.000000 2.278170
v 0.889258 -0.000000 2.528170
v 0.889258 -0.000000 2.278170
v 0.899258 0.100000 2.528170
v 0.899258 0.100000 2.278170
v 0.889258 0.100000 2.528170
v 0.889258 0.100000 2.278170
v 0.128507 -0.000000 2.020591
v 0.378507 -0.000000 2.020591
v 0.128507 -0.000000 2.010591
v 0.378507 -0.000000 2.010591
v 0.128507 0.100000 2.020591
v 0.378507 0.100000 2.020591
v 0.128507 0.100000 2.010591
v 0.378507 0.100000 2.010591
v 0.382585 -0.000000 2.020591
v 0.632585 -0.000000 2.020591
v 0.382585 -0.000000 2.010591
v 0.632585 -0.000000 2.010591
v 0.382585 0.100000 2.020591
v 0.632585 0.100000 2.020591
v 0.382585 0.100000 2.010591
v 0.632585 0.100000 2.010591
v 0.636092 -0.000000 2.537793
v 0.886092 -0.000000 2.537793
v 0.636092 -0.000000 2.527793
v 0.886092 -0.000000 2.527793
v 0.636092 0.100000 2.537793
v 0.886092 0.100000 2.537793
v 0.636092 0.100000 2.527793
v 0.886092 0.100000 2.527793
vn -0.0000 -1.0000 -0.0000
vn -0.0000 1.0000 -0.0000
vn -0.0000 -0.0000 -1.0000
vn -0.0000 -0.0000 1.0000
vn -1.0000 -0.0000 -0.0000
vn 1.0000 -0.0000 -0.0000
vt 0.000000 0.000000
vt 0.000000 1.000000
vt 1.000000 1.000000
vt 1.000000 0.000000
s 0
usemtl Material.001
f 1/1/1 3/2/1 4/3/1 2/4/1
f 5/1/2 6/4/2 8/3/2 7/2/2
f 2/4/3 4/3/3 8/3/3 6/4/3
f 3/2/4 1/1/4 5/1/4 7/2/4
f 4/3/5 3/2/5 7/2/5 8/3/5
f 1/1/6 2/4/6 6/4/6 5/1/6
f 9/1/1 11/2/1 12/3/1 10/4/1
f 13/1/2 14/4/2 16/3/2 15/2/2
f 10/4/3 12/3/3 16/3/3 14/4/3
f 11/2/4 9/1/4 13/1/4 15/2/4
f 12/3/5 11/2/5 15/2/5 16/3/5
f 9/1/6 10/4/6 14/4/6 13/1/6
f 17/1/1 19/2/1 20/3/1 18/4/1
f 21/1/2 22/4/2 24/3/2 23/2/2
f 18/4/3 20/3/3 24/3/3 22/4/3
f 19/2/4 17/1/4 21/1/4 23/2/4
f 20/3/5 19/2/5 23/2/5 24/3/5
f 17/1/6 18/4/6 22/4/6 21/1/6
f 25/1/1 27/2/1 28/3/1 26/4/1
f 29/1/2 30/4/2 32/3/2 31/2/2
f 26/4/3 28/3/3 32/3/3 30/4/3
f 27/2/4 25/1/4 29/1/4 31/2/4
f 28/3/5 27/2/5 31/2/5 32/3/5
f 25/1/6 26/4/6 30/4/6 29/1/6
f 33/1/1 35/2/1 36/3/1 34/4/1
f 37/1/2 38/4/2 40/3/2 39/2/2
f 34/4/3 36/3/3 40/3/3 38/4/3
f 35/2/4 33/1/4 37/1/4 39/2/4
f 36/3/5 35/2/5 39/2/5 40/3/5
f 33/1/6 34/4/6 38/4/6 37/1/6
f 41/1/1 43/2/1 44/3/1 42/4/1
f 45/1/2 46/4/2 48/3/2 47/2/2
f 42/4/3 44/3/3 48/3/3 46/4/3
f 43/2/4 41/1/4 45/1/4 47/2/4
f 44/3/5 43/2/5 47/2/5 48/3/5
f 41/1/6 42/4/6 46/4/6 45/1/6
f 49/1/1 51/2/1 52/3/1 50/4/1
f 53/1/2 54/4/2 56/3/2 55/2/2
f 50/4/3 52/3/3 56/3/3 54/4/3
f 51/2/4 49/1/4 53/1/4 55/2/4
f 52/3/5 51/2/5 55/2/5 56/3/5
f 49/1/6 50/4/6 54/4/6 53/1/6
f 57/1/1 59/2/1 60/3/1 58/4/1
f 61/1/2 62/4/2 64/3/2 63/2/2
f 58/4/6 60/3/6 64/3/6 62/4/6
f 59/2/5 57/1/5 61/1/5 63/2/5
f 60/3/3 59/2/3 63/2/3 64/3/3
f 57/1/4 58/4/4 62/4/4 61/1/4
f 65/1/1 67/2/1 68/3/1 66/4/1
f 69/1/2 70/4/2 72/3/2 71/2/2
f 66/4/6 68/3/6 72/3/6 70/4/6
f 67/2/5 65/1/5 69/1/5 71/2/5
f 68/3/3 67/2/3 71/2/3 72/3/3
f 65/1/4 66/4/4 70/4/4 69/1/4
f 73/1/1 75/2/1 76/3/1 74/4/1
f 77/1/2 78/4/2 80/3/2 79/2/2
f 74/4/6 76/3/6 80/3/6 78/4/6
f 75/2/5 73/1/5 77/1/5 79/2/5
f 76/3/3 75/2/3 79/2/3 80/3/3
f 73/1/4 74/4/4 78/4/4 77/1/4
