# Blender 4.3.2
# www.blender.org
mtllib evaluation_maze2.mtl
o Plane.199
v -0.116724 -0.000000 2.260836
v -0.116724 -0.000000 2.010836
v -0.126724 -0.000000 2.260836
v -0.126724 -0.000000 2.010836
v -0.116724 0.100000 2.260836
v -0.116724 0.100000 2.010836
v -0.126724 0.100000 2.260836
v -0.126724 0.100000 2.010836
v -0.114749 -0.000000 2.770397
v -0.114749 -0.000000 2.520397
v -0.124749 -0.000000 2.770397
v -0.124749 -0.000000 2.520397
v -0.114749 0.100000 2.770397
v -0.114749 0.100000 2.520397
v -0.124749 0.100000 2.770397
v -0.124749 0.100000 2.520397
v 0.126284 -0.000000 3.035756
v 0.126284 -0.000000 2.785756
v 0.116284 -0.000000 3.035756
v 0.116284 -0.000000 2.785756
v 0.126284 0.100000 3.035756
v 0.126284 0.100000 2.785756
v 0.116284 0.100000 3.035756
v 0.116284 0.100000 2.785756
v 0.126284 -0.000000 2.018602
v 0.126284 -0.000000 1.768602
v 0.116284 -0.000000 2.018602
v 0.116284 -0.000000 1.768602
v 0.126284 0.100000 2.018602
v 0.126284 0.100000 1.768602
v 0.116284 0.100000 2.018602
v 0.116284 0.100000 1.768602
v 0.390626 -0.000000 3.035756
v 0.390626 -0.000000 2.785756
v 0.380626 -0.000000 3.035756
v 0.380626 -0.000000 2.785756
v 0.390626 0.100000 3.035756
v 0.390626 0.100000 2.785756
v 0.380626 0.100000 3.035756
v 0.380626 0.100000 2.785756
v 0.634915 -0.000000 3.035756
v 0.634915 -0.000000 2.785756
v 0.624915 -0.000000 3.035756
v 0.624915 -0.000000 2.785756
v 0.634915 0.100000 3.035756
v 0.634915 0.100000 2.785756
v 0.624915 0.100000 3.035756
v 0.624915 0.100000 2.785756
v 0.634915 -0.000000 2.018602
v 0.634915 -0.000000 1.768602
v 0.624915 -0.000000 2.018602
v 0.624915 -0.000000 1.768602
v 0.634915 0.100000 2.018602
v 0.634915 0.100000 1.768602
v 0.624915 0.100000 2.018602
v 0.624915 0.100000 1.768602
v 0.899258 -0.000000 2.018602
v 0.899258 -0.000000 1.768602
v 0.889258 -0.000000 2.018602
v 0.889258 -0.000000 1.768602
v 0.899258 0.100000 2.018602
v 0.899258 0.100000 1.768602
v 0.889258 0.100000 2.018602
v 0.889258 0.100000 1.768602
v 1.142635 -0.000000 3.035756
v 1.142635 -0.000000 2.785756
v 1.132635 -0.000000 3.035756
v 1.132635 -0.000000 2.785756
v 1.142635 0.100000 3.035756
v 1.142635 0.100000 2.785756
v 1.132635 0.100000 3.035756
v 1.132635 0.100000 2.785756
v -0.134831 -0.000000 1.772927
v 0.115169 -0.000000 1.772927
v -0.134831 -0.000000 1.762927
v 0.115169 -0.000000 1.762927
v -0.134831 0.100000 1.772927
v 0.115169 0.100000 1.772927
v -0.134831 0.100000 1.762927
v 0.115169 0.100000 1.762927
v 0.118676 -0.000000 1.772927
v 0.368676 -0.000000 1.772927
v 0.118676 -0.000000 1.762927
v 0.368676 -0.000000 1.762927
v 0.118676 0.100000 1.772927
v 0.368676 0.100000 1.772927
v 0.118676 0.100000 1.762927
v 0.368676 0.100000 1.762927
v 0.892154 -0.000000 2.020591
v 1.142154 -0.000000 2.020591
v 0.892154 -0.000000 2.010591
v 1.142154 -0.000000 2.010591
v 0.892154 0.100000 2.020591
v 1.142154 0.100000 2.020591
v 0.892154 0.100000 2.010591
v 1.142154 0.100000 2.010591
v 0.892154 -0.000000 2.281501
v 1.142154 -0.000000 2.281501
v 0.892154 -0.000000 2.271501
v 1.142154 -0.000000 2.271501
v 0.892154 0.100000 2.281501
v 1.142154 0.100000 2.281501
v 0.892154 0.100000 2.271501
v 1.142154 0.100000 2.271501
v 0.892154 -0.000000 2.792995
v 1.142154 -0.000000 2.792995
v 0.892154 -0.000000 2.782995
v 1.142154 -0.000000 2.782995
v 0.892154 0.100000 2.792995
v 1.142154 0.100000 2.792995
v 0.892154 0.100000 2.782995
v 1.142154 0.100000 2.782995
v -0.125000 -0.000000 3.046058
v 0.125000 -0.000000 3.046058
v -0.125000 -0.000000 3.036057
v 0.125000 -0.000000 3.036057
v -0.125000 0.100000 3.046058
v 0.125000 0.100000 3.046058
v -0.125000 0.100000 3.036057
v 0.125000 0.100000 3.036057
vn -0.0000 -1.0000 -0.0000
vn -0.0000 1.0000 -0.0000
vn -0.0000 -0.0000 -1.0000
vn -0.0000 -0.0000 1.0000
vn -1.0000 -0.0000 -0.0000
vn 1.0000 -0.0000 -0.0000
vt 0.000000 0.000000
vt 0.000000 1.000000
vt 1.000000 1.000000
vt 1.000000 0.000000
s 0
usemtl Material.002
f 1/1/1 3/2/1 4/3/1 2/4/1
f 5/1/2 6/4/2 8/3/2 7/2/2
f 2/4/3 4/3/3 8/3/3 6/4/3
f 3/2/4 1/1/4 5/1/4 7/2/4
f 4/3/5 3/2/5 7/2/5 8/3/5
f 1/1/6 2/4/6 6/4/6 5/1/6
f 9/1/1 11/2/1 12/3/1 10/4/1
f 13/1/2 14/4/2 16/3/2 15/2/2
f 10/4/3 12/3/3 16/3/3 14/4/3
f 11/2/4 9/1/4 13/1/4 15/2/4
f 12/3/5 11/2/5 15/2/5 16/3/5
f 9/1/6 10/4/6 14/4/6 13/1/6
f 17/1/1 19/2/1 20/3/1 18/4/1
f 21/1/2 22/4/2 24/3/2 23/2/2
f 18/4/3 20/3/3 24/3/3 22/4/3
f 19/2/4 17/1/4 21/1/4 23/2/4
f 20/3/5 19/2/5 23/2/5 24/3/5
f 17/1/6 18/4/6 22/4/6 21/1/6
f 25/1/1 27/2/1 28/3/1 26/4/1
f 29/1/2 30/4/2 32/3/2 31/2/2
f 26/4/3 28/3/3 32/3/3 30/4/3
f 27/2/4 25/1/4 29/1/4 31/2/4
f 28/3/5 27/2/5 31/2/5 32/3/5
f 25/1/6 26/4/6 30/4/6 29/1/6
f 33/1/1 35/2/1 36/3/1 34/4/1
f 37/1/2 38/4/2 40/3/2 39/2/2
f 34/4/3 36/3/3 40/3/3 38/4/3
f 35/2/4 33/1/4 37/1/4 39/2/4
f 36/3/5 35/2/5 39/2/5 40/3/5
f 33/1/6 34/4/6 38/4/6 37/1/6
f 41/1/1 43/2/1 44/3/1 42/4/1
f 45/1/2 46/4/2 48/3/2 47/2/2
f 42/4/3 44/3/3 48/3/3 46/4/3
f 43/2/4 41/1/4 45/1/4 47/2/4
f 44/3/5 43/2/5 47/2/5 48/3/5
f 41/1/6 42/4/6 46/4/6 45/1/6
f 49/1/1 51/2/1 52/3/1 50/4/1
f 53/1/2 54/4/2 56/3/2 55/2/2
f 50/4/3 52/3/3 56/3/3 54/4/3
f 51/2/4 49/1/4 53/1/4 55/2/4
f 52/3/5 51/2/5 55/2/5 56/3/5
f 49/1/6 50/4/6 54/4/6 53/1/6
f 57/1/1 59/2/1 60/3/1 58/4/1
f 61/1/2 62/4/2 64/3/2 63/2/2
f 58/4/3 60/3/3 64/3/3 62/4/3
f 59/2/4 57/1/4 61/1/4 63/2/4
f 60/3/5 59/2/5 63/2/5 64/3/5
f 57/1/6 58/4/6 62/4/6 61/1/6
f 65/1/1 67/2/1 68/3/1 66/4/1
f 69/1/2 70/4/2 72/3/2 71/2/2
f 66/4/3 68/3/3 72/3/3 70/4/3
f 67/2/4 65/1/4 69/1/4 71/2/4
f 68/3/5 67/2/5 71/2/5 72/3/5
f 65/1/6 66/4/6 70/4/6 69/1/6
f 73/1/1 75/2/1 76/3/1 74/4/1
f 77/1/2 78/4/2 80/3/2 79/2/2
f 74/4/6 76/3/6 80/3/6 78/4/6
f 75/2/5 73/1/5 77/1/5 79/2/5
f 76/3/3 75/2/3 79/2/3 80/3/3
f 73/1/4 74/4/4 78/4/4 77/1/4
f 81/1/1 83/2/1 84/3/1 82/4/1
f 85/1/2 86/4/2 88/3/2 87/2/2
f 82/4/6 84/3/6 88/3/6 86/4/6
f 83/2/5 81/1/5 85/1/5 87/2/5
f 84/3/3 83/2/3 87/2/3 88/3/3
f 81/1/4 82/4/4 86/4/4 85/1/4
f 89/1/1 91/2/1 92/3/1 90/4/1
f 93/1/2 94/4/2 96/3/2 95/2/2
f 90/4/6 92/3/6 96/3/6 94/4/6
f 91/2/5 89/1/5 93/1/5 95/2/5
f 92/3/3 91/2/3 95/2/3 96/3/3
f 89/1/4 90/4/4 94/4/4 93/1/4
f 97/1/1 99/2/1 100/3/1 98/4/1
f 101/1/2 102/4/2 104/3/2 103/2/2
f 98/4/6 100/3/6 104/3/6 102/4/6
f 99/2/5 97/1/5 101/1/5 103/2/5
f 100/3/3 99/2/3 103/2/3 104/3/3
f 97/1/4 98/4/4 102/4/4 101/1/4
f 105/1/1 107/2/1 108/3/1 106/4/1
f 109/1/2 110/4/2 112/3/2 111/2/2
f 106/4/6 108/3/6 112/3/6 110/4/6
f 107/2/5 105/1/5 109/1/5 111/2/5
f 108/3/3 107/2/3 111/2/3 112/3/3
f 105/1/4 106/4/4 110/4/4 109/1/4
f 113/1/1 115/2/1 116/3/1 114/4/1
f 117/1/2 118/4/2 120/3/2 119/2/2
f 114/4/6 116/3/6 120/3/6 118/4/6
f 115/2/5 113/1/5 117/1/5 119/2/5
f 116/3/3 115/2/3 119/2/3 120/3/3
f 113/1/4 114/4/4 118/4/4 117/1/4
